{"title":"V for Vendetta[x264][AC3(5.1)] Multi_Sub.mkv","uid":5274066,"size":1048027689,"categoryP":"video","categoryS":"movies","magnet":"?xt=urn:btih:5265612dc96c78f46bcdd60fffd2c8e3a294974c&amp;dn=V+for+Vendetta%5Bx264%5D%5BAC3%285.1%29%5D+Multi_Sub.mkv&amp;tr=udp%3A%2F%2Ftracker.openbittorrent.com%3A80&amp;tr=udp%3A%2F%2Fopen.demonii.com%3A1337&amp;tr=udp%3A%2F%2Ftracker.coppersurfer.tk%3A6969&amp;tr=udp%3A%2F%2Fexodus.desync.com%3A6969","seeders":0,"leechers":1,"uploader":"Zen_Bud","files":-1,"time":1263321219,"description":"General\nComplete name                    : V for Vendetta.mkv\nFormat                           : Matroska\nFile size                        : 999 MiB\nDuration                         : 2h 7mn\nOverall bit rate                 : 1 099 Kbps\n\n\nVideo\nID                               : 1\nFormat                           : AVC\nDuration                         : 2h 7mn\nBit rate                         : 694 Kbps\nWidth                            : 692 pixels\nHeight                           : 428 pixels\nDisplay aspect ratio             : 2.25:1\nFrame rate                       : 25.000 fps\nResolution                       : 8 bits\nColorimetry                      : 4:2:0\nScan type                        : Progressive\nBits/(Pixel*Frame)               : 0.094\nStream size                      : 630 MiB (63%)\nWriting library                  : x264 core 79\n\n\nAudio\nID                               : 2\nFormat                           : AC-3\nFormat/Info                      : Audio Coding 3\nCodec ID                         : A_AC3\nDuration                         : 2h 7mn\nBit rate mode                    : Constant\nBit rate                         : 384 Kbps\nChannel(s)                       : 6 channels\nChannel positions                : Front: L C R, Surround: L R, LFE\nSampling rate                    : 48.0 KHz\nStream size                      : 349 MiB (35%)\nLanguage                         : English\n\nText #1\nLanguage                         : English\n\nText #2\nLanguage                         : Danish\n\nText #3\nLanguage                         : Finnish\n\nText #4\nLanguage                         : Italian\n\nText #5\nLanguage                         : Norwegian\n\nText #6\nLanguage                         : Swedish\n\n","torrent":{"xt":"urn:btih:5265612dc96c78f46bcdd60fffd2c8e3a294974c","amp;dn":"V+for+Vendetta%5Bx264%5D%5BAC3%285.1%29%5D+Multi_Sub.mkv","amp;tr":["udp%3A%2F%2Ftracker.openbittorrent.com%3A80","udp%3A%2F%2Fopen.demonii.com%3A1337","udp%3A%2F%2Ftracker.coppersurfer.tk%3A6969","udp%3A%2F%2Fexodus.desync.com%3A6969"],"infoHash":"5265612dc96c78f46bcdd60fffd2c8e3a294974c","infoHashBuffer":{"type":"Buffer","data":[82,101,97,45,201,108,120,244,107,205,214,15,255,210,200,227,162,148,151,76]},"announce":[],"urlList":[]}}